<?xml version="1.0" encoding="utf-8"?>
<!-- Generator: Adobe Illustrator 16.0.0, SVG Export Plug-In . SVG Version: 6.00 Build 0)  -->
<!DOCTYPE svg PUBLIC "-//W3C//DTD SVG 1.1//EN" "http://www.w3.org/Graphics/SVG/1.1/DTD/svg11.dtd">
<svg version="1.1" id="Layer_1" xmlns="http://www.w3.org/2000/svg" xmlns:xlink="http://www.w3.org/1999/xlink" x="0px" y="0px"
	 width="465.577px" height="202.844px" viewBox="17.212 148.578 465.577 202.844"
	 enable-background="new 17.212 148.578 465.577 202.844" xml:space="preserve">
<g>
	<g>
		<path fill="#033056" d="M114.968,293.184L74.143,255l-56.931,0.01l103.075,96.412l56.931-0.009l-30.758-28.769L114.968,293.184z"
			/>
		<path fill="#3D6BA2" d="M187.75,293.184L146.925,255l-56.932,0.01l103.075,96.411L250,351.413l-30.759-28.768L187.75,293.184z"/>
		<path fill="#033056" d="M353.539,322.645l-30.758,28.769l56.932,0.008l103.076-96.411L425.857,255l-40.826,38.183L353.539,322.645
			z"/>
		<path fill="#3D6BA2" d="M280.758,322.645L250,351.413l56.931,0.009l103.076-96.412L353.076,255l-40.826,38.183L280.758,322.645z"
			/>
	</g>
	<g>
		<path d="M385.033,206.816l40.824,38.185l56.932-0.011l-103.074-96.412l-56.934,0.009l30.758,28.769L385.033,206.816z"/>
		<path d="M312.25,206.816L353.076,245l56.932-0.009l-103.076-96.413L250,148.587l30.759,28.769L312.25,206.816z"/>
		<path d="M146.46,177.355l30.759-28.769l-56.932-0.008L17.212,244.99L74.144,245l40.826-38.184L146.46,177.355z"/>
		<path d="M219.243,177.355L250,148.587l-56.932-0.009L89.994,244.99l56.931,0.011l40.825-38.185L219.243,177.355z"/>
	</g>
	<g>
		<path fill="#033056" d="M385.033,206.816l40.824,38.185l56.932-0.011l-103.074-96.412l-56.934,0.009l30.758,28.769
			L385.033,206.816z"/>
		<path fill="#3D6BA2" d="M312.25,206.816L353.076,245l56.932-0.009l-103.076-96.413L250,148.587l30.759,28.769L312.25,206.816z"/>
		<path fill="#033056" d="M146.46,177.355l30.759-28.769l-56.932-0.008L17.212,244.99L74.144,245l40.826-38.184L146.46,177.355z"/>
		<path fill="#3D6BA2" d="M219.243,177.355L250,148.587l-56.932-0.009L89.994,244.99l56.931,0.011l40.825-38.185L219.243,177.355z"
			/>
	</g>
</g>
</svg>
